# xmcd
#
# Track frame offsets:
#	150
#	14599
#	33724
#	47343
#	62139
#	78512
#	91117
#	98141
#	111805
#	129352
#	139320
#	157768
#	169022
#	185188
#	200102
#
# Disc length: 2744 seconds
#
# Revision: 0
# Processed by: cddbd v1.5.2PL0 Copyright (c) Steve Scherf et al.
# Submitted via: EasyCDDAExtractor 11.5.0.1
#
DISCID=ca0ab60f
DTITLE=Emily Hickey - Irish Blessing
DYEAR=2007
DGENRE=celtic
TTITLE0=The King Of Love My Shepherd
TTITLE1=Simple Praise
TTITLE2=Red Is The Rose
TTITLE3=O Danny Boy
TTITLE4=Free From Guilt And Free From Sin
TTITLE5=Come, Thou Fount Of Every Blessing
TTITLE6=The Minstrel Boy
TTITLE7=The Last Rose Of Summer
TTITLE8=O Love Divine
TTITLE9=Sally Gardens
TTITLE10=More Love
TTITLE11=Be Thou My Vision
TTITLE12=Jesus, My Lord, My God, My All
TTITLE13=When Irish Eyes Were Smiling
TTITLE14=Irish Blessing
EXTD=
EXTT0=
EXTT1=
EXTT2=
EXTT3=
EXTT4=
EXTT5=
EXTT6=
EXTT7=
EXTT8=
EXTT9=
EXTT10=
EXTT11=
EXTT12=
EXTT13=
EXTT14=
PLAYORDER=
